<svg xmlns="http://www.w3.org/2000/svg" fill="#ffffff" class="bi bi-snow" viewBox="0 0 128 128" id="Snow--Streamline-Bootstrap" height="128" width="128" style="background-color: #11dce8">
  <desc>
    Snow Streamline Icon: https://streamlinehq.com
  </desc>
  <path d="M64 128a4 4 0 0 1 -4 -4v-10.344l-5.168 5.176a4 4 0 0 1 -5.656 -5.664L60 102.344V70.928l-27.2 15.704 -3.968 14.8a4 4 0 1 1 -7.728 -2.08l1.896 -7.056 -8.96 5.168a4 4 0 0 1 -4 -6.928l8.96 -5.168 -7.072 -1.896a4 4 0 1 1 2.08 -7.728l14.784 3.96L56 64 28.8 48.296l-14.8 3.96a4 4 0 0 1 -2.064 -7.728l7.064 -1.896 -8.96 -5.168a4 4 0 1 1 4 -6.928l8.96 5.168 -1.896 -7.064a4 4 0 1 1 7.728 -2.064l3.96 14.792L60 57.072V25.656L49.176 14.832a4 4 0 1 1 5.656 -5.664l5.168 5.176V4a4 4 0 1 1 8 0v10.344l5.176 -5.176a4 4 0 1 1 5.656 5.664L68 25.656v31.416l27.2 -15.704 3.968 -14.8a4 4 0 1 1 7.728 2.08l-1.888 7.056 8.96 -5.168a4 4 0 0 1 4 6.928l-8.96 5.168 7.064 1.896a4 4 0 1 1 -2.08 7.728l-14.784 -3.96L72 64l27.2 15.704 14.792 -3.96a4 4 0 0 1 2.072 7.728l-7.064 1.896 8.96 5.168a4 4 0 0 1 -4 6.928l-8.96 -5.168 1.888 7.064a4 4 0 1 1 -7.728 2.064l-3.96 -14.792 -27.2 -15.704v31.416l10.824 10.824a4 4 0 0 1 -5.656 5.664l-5.176 -5.176V124a4 4 0 0 1 -4 4z" stroke-width="8"></path>
</svg>